<svg width="540" height="238" viewBox="0 0 540 238" fill="none" xmlns="http://www.w3.org/2000/svg">
<path d="M175.964 200.55C173.031 200.55 170.813 199.725 169.309 198.075C167.806 196.388 167.054 193.987 167.054 190.87V188.67H172.774V191.31C172.774 193.803 173.819 195.05 175.909 195.05C176.936 195.05 177.706 194.757 178.219 194.17C178.769 193.547 179.044 192.557 179.044 191.2C179.044 189.587 178.678 188.175 177.944 186.965C177.211 185.718 175.854 184.233 173.874 182.51C171.381 180.31 169.639 178.33 168.649 176.57C167.659 174.773 167.164 172.757 167.164 170.52C167.164 167.477 167.934 165.13 169.474 163.48C171.014 161.793 173.251 160.95 176.184 160.95C179.081 160.95 181.263 161.793 182.729 163.48C184.233 165.13 184.984 167.513 184.984 170.63V172.225H179.264V170.245C179.264 168.925 179.008 167.972 178.494 167.385C177.981 166.762 177.229 166.45 176.239 166.45C174.223 166.45 173.214 167.678 173.214 170.135C173.214 171.528 173.581 172.83 174.314 174.04C175.084 175.25 176.459 176.717 178.439 178.44C180.969 180.64 182.711 182.638 183.664 184.435C184.618 186.232 185.094 188.34 185.094 190.76C185.094 193.913 184.306 196.333 182.729 198.02C181.189 199.707 178.934 200.55 175.964 200.55ZM188.563 161.5H205.063V167H194.613V177.175H202.918V182.675H194.613V194.5H205.063V200H188.563V161.5ZM208.544 161.5H217.509C220.625 161.5 222.899 162.233 224.329 163.7C225.759 165.13 226.474 167.348 226.474 170.355V172.72C226.474 176.717 225.154 179.247 222.514 180.31V180.42C223.98 180.86 225.007 181.758 225.594 183.115C226.217 184.472 226.529 186.287 226.529 188.56V195.325C226.529 196.425 226.565 197.323 226.639 198.02C226.712 198.68 226.895 199.34 227.189 200H221.029C220.809 199.377 220.662 198.79 220.589 198.24C220.515 197.69 220.479 196.7 220.479 195.27V188.23C220.479 186.47 220.185 185.242 219.599 184.545C219.049 183.848 218.077 183.5 216.684 183.5H214.594V200H208.544V161.5ZM216.794 178C218.004 178 218.902 177.688 219.489 177.065C220.112 176.442 220.424 175.397 220.424 173.93V170.96C220.424 169.567 220.167 168.558 219.654 167.935C219.177 167.312 218.407 167 217.344 167H214.594V178H216.794ZM228.916 161.5H235.021L238.981 191.365H239.091L243.051 161.5H248.606L242.776 200H234.746L228.916 161.5ZM251.512 161.5H257.562V200H251.512V161.5ZM270.673 200.55C267.74 200.55 265.503 199.725 263.963 198.075C262.423 196.388 261.653 193.987 261.653 190.87V170.63C261.653 167.513 262.423 165.13 263.963 163.48C265.503 161.793 267.74 160.95 270.673 160.95C273.607 160.95 275.843 161.793 277.383 163.48C278.923 165.13 279.693 167.513 279.693 170.63V173.93H273.973V170.245C273.973 167.715 272.928 166.45 270.838 166.45C268.748 166.45 267.703 167.715 267.703 170.245V191.31C267.703 193.803 268.748 195.05 270.838 195.05C272.928 195.05 273.973 193.803 273.973 191.31V183.775H270.948V178.275H279.693V190.87C279.693 193.987 278.923 196.388 277.383 198.075C275.843 199.725 273.607 200.55 270.673 200.55ZM288.253 161.5H296.448L302.718 200H296.668L295.568 192.355V192.465H288.693L287.593 200H281.983L288.253 161.5ZM294.853 187.24L292.158 168.21H292.048L289.408 187.24H294.853ZM305.653 161.5H314.288L318.138 189.055H318.248L322.098 161.5H330.733V200H325.013V170.85H324.903L320.503 200H315.443L311.043 170.85H310.933V200H305.653V161.5ZM335.248 161.5H351.748V167H341.298V177.175H349.603V182.675H341.298V194.5H351.748V200H335.248V161.5ZM355.228 161.5H364.193C367.31 161.5 369.583 162.233 371.013 163.7C372.443 165.13 373.158 167.348 373.158 170.355V172.72C373.158 176.717 371.838 179.247 369.198 180.31V180.42C370.665 180.86 371.691 181.758 372.278 183.115C372.901 184.472 373.213 186.287 373.213 188.56V195.325C373.213 196.425 373.25 197.323 373.323 198.02C373.396 198.68 373.58 199.34 373.873 200H367.713C367.493 199.377 367.346 198.79 367.273 198.24C367.2 197.69 367.163 196.7 367.163 195.27V188.23C367.163 186.47 366.87 185.242 366.283 184.545C365.733 183.848 364.761 183.5 363.368 183.5H361.278V200H355.228V161.5ZM363.478 178C364.688 178 365.586 177.688 366.173 177.065C366.796 176.442 367.108 175.397 367.108 173.93V170.96C367.108 169.567 366.851 168.558 366.338 167.935C365.861 167.312 365.091 167 364.028 167H361.278V178H363.478Z" fill="white"/>
<path d="M236.973 122.47C218.666 120.896 206.87 117.548 184 108.385C208.706 122.111 228.793 130.157 268.466 129.998C261.317 126.956 258.784 126.368 257.807 125.303C275.038 123.06 282.436 120.679 292.449 113.566L282.355 111.947C295.285 101.194 299.946 93.8237 306.742 79.8925C282.147 101.5 267.193 109.762 251.185 108.385L261.683 113.08C248.794 118.083 241.529 118.462 228.494 114.375L236.973 122.47Z" fill="#0290DF"/>
<path d="M303.027 55.5302C321.334 57.1045 333.13 60.4521 356 69.6147C331.294 55.8889 311.207 47.8435 271.534 48.0023C278.683 51.0439 281.216 51.6321 282.193 52.6971C264.962 54.9404 257.564 57.3215 247.551 64.4342L257.645 66.0531C244.715 76.8065 240.054 84.1763 233.258 98.1075C257.853 76.4999 272.807 68.2384 288.815 69.6147L278.317 64.9199C291.206 59.9165 298.471 59.5378 311.506 63.6248L303.027 55.5302Z" fill="#0290DF"/>
</svg>
