<svg width="540" height="238" viewBox="0 0 540 238" fill="none" xmlns="http://www.w3.org/2000/svg">
<path d="M177.964 200.55C175.031 200.55 172.813 199.725 171.309 198.075C169.806 196.388 169.054 193.987 169.054 190.87V188.67H174.774V191.31C174.774 193.803 175.819 195.05 177.909 195.05C178.936 195.05 179.706 194.757 180.219 194.17C180.769 193.547 181.044 192.557 181.044 191.2C181.044 189.587 180.678 188.175 179.944 186.965C179.211 185.718 177.854 184.233 175.874 182.51C173.381 180.31 171.639 178.33 170.649 176.57C169.659 174.773 169.164 172.757 169.164 170.52C169.164 167.477 169.934 165.13 171.474 163.48C173.014 161.793 175.251 160.95 178.184 160.95C181.081 160.95 183.263 161.793 184.729 163.48C186.233 165.13 186.984 167.513 186.984 170.63V172.225H181.264V170.245C181.264 168.925 181.008 167.972 180.494 167.385C179.981 166.762 179.229 166.45 178.239 166.45C176.223 166.45 175.214 167.678 175.214 170.135C175.214 171.528 175.581 172.83 176.314 174.04C177.084 175.25 178.459 176.717 180.439 178.44C182.969 180.64 184.711 182.638 185.664 184.435C186.618 186.232 187.094 188.34 187.094 190.76C187.094 193.913 186.306 196.333 184.729 198.02C183.189 199.707 180.934 200.55 177.964 200.55ZM190.563 161.5H207.063V167H196.613V177.175H204.918V182.675H196.613V194.5H207.063V200H190.563V161.5ZM210.544 161.5H219.509C222.625 161.5 224.899 162.233 226.329 163.7C227.759 165.13 228.474 167.348 228.474 170.355V172.72C228.474 176.717 227.154 179.247 224.514 180.31V180.42C225.98 180.86 227.007 181.758 227.594 183.115C228.217 184.472 228.529 186.287 228.529 188.56V195.325C228.529 196.425 228.565 197.323 228.639 198.02C228.712 198.68 228.895 199.34 229.189 200H223.029C222.809 199.377 222.662 198.79 222.589 198.24C222.515 197.69 222.479 196.7 222.479 195.27V188.23C222.479 186.47 222.185 185.242 221.599 184.545C221.049 183.848 220.077 183.5 218.684 183.5H216.594V200H210.544V161.5ZM218.794 178C220.004 178 220.902 177.688 221.489 177.065C222.112 176.442 222.424 175.397 222.424 173.93V170.96C222.424 169.567 222.167 168.558 221.654 167.935C221.177 167.312 220.407 167 219.344 167H216.594V178H218.794ZM230.916 161.5H237.021L240.981 191.365H241.091L245.051 161.5H250.606L244.776 200H236.746L230.916 161.5ZM253.512 161.5H259.562V200H253.512V161.5ZM272.673 200.55C269.74 200.55 267.503 199.725 265.963 198.075C264.423 196.388 263.653 193.987 263.653 190.87V170.63C263.653 167.513 264.423 165.13 265.963 163.48C267.503 161.793 269.74 160.95 272.673 160.95C275.607 160.95 277.843 161.793 279.383 163.48C280.923 165.13 281.693 167.513 281.693 170.63V173.93H275.973V170.245C275.973 167.715 274.928 166.45 272.838 166.45C270.748 166.45 269.703 167.715 269.703 170.245V191.31C269.703 193.803 270.748 195.05 272.838 195.05C274.928 195.05 275.973 193.803 275.973 191.31V183.775H272.948V178.275H281.693V190.87C281.693 193.987 280.923 196.388 279.383 198.075C277.843 199.725 275.607 200.55 272.673 200.55ZM290.253 161.5H298.448L304.718 200H298.668L297.568 192.355V192.465H290.693L289.593 200H283.983L290.253 161.5ZM296.853 187.24L294.158 168.21H294.048L291.408 187.24H296.853ZM307.653 161.5H316.288L320.138 189.055H320.248L324.098 161.5H332.733V200H327.013V170.85H326.903L322.503 200H317.443L313.043 170.85H312.933V200H307.653V161.5ZM337.248 161.5H353.748V167H343.298V177.175H351.603V182.675H343.298V194.5H353.748V200H337.248V161.5ZM357.228 161.5H366.193C369.31 161.5 371.583 162.233 373.013 163.7C374.443 165.13 375.158 167.348 375.158 170.355V172.72C375.158 176.717 373.838 179.247 371.198 180.31V180.42C372.665 180.86 373.691 181.758 374.278 183.115C374.901 184.472 375.213 186.287 375.213 188.56V195.325C375.213 196.425 375.25 197.323 375.323 198.02C375.396 198.68 375.58 199.34 375.873 200H369.713C369.493 199.377 369.346 198.79 369.273 198.24C369.2 197.69 369.163 196.7 369.163 195.27V188.23C369.163 186.47 368.87 185.242 368.283 184.545C367.733 183.848 366.761 183.5 365.368 183.5H363.278V200H357.228V161.5ZM365.478 178C366.688 178 367.586 177.688 368.173 177.065C368.796 176.442 369.108 175.397 369.108 173.93V170.96C369.108 169.567 368.851 168.558 368.338 167.935C367.861 167.312 367.091 167 366.028 167H363.278V178H365.478Z" fill="black"/>
<path d="M238.973 122.47C220.666 120.896 208.87 117.548 186 108.385C210.706 122.111 230.793 130.157 270.466 129.998C263.317 126.956 260.784 126.368 259.807 125.303C277.038 123.06 284.436 120.679 294.449 113.566L284.355 111.947C297.285 101.194 301.946 93.8237 308.742 79.8925C284.147 101.5 269.193 109.762 253.185 108.385L263.683 113.08C250.794 118.083 243.529 118.462 230.494 114.375L238.973 122.47Z" fill="#0290DF"/>
<path d="M305.027 55.5302C323.334 57.1045 335.13 60.4521 358 69.6147C333.294 55.8889 313.207 47.8435 273.534 48.0023C280.683 51.0439 283.216 51.6321 284.193 52.6971C266.962 54.9404 259.564 57.3215 249.551 64.4342L259.645 66.0531C246.715 76.8065 242.054 84.1763 235.258 98.1075C259.853 76.4999 274.807 68.2384 290.815 69.6147L280.317 64.9199C293.206 59.9165 300.471 59.5378 313.506 63.6248L305.027 55.5302Z" fill="#0290DF"/>
</svg>
